<svg width="26" height="26" viewBox="0 0 26 26" fill="none" xmlns="http://www.w3.org/2000/svg">
<path fill-rule="evenodd" clip-rule="evenodd" d="M25.5 12.6829C25.5 5.73833 19.9029 0.107422 13 0.107422C6.0971 0.107422 0.5 5.73833 0.5 12.6829C0.5 18.9595 5.07031 24.162 11.0469 25.1063V16.3192H7.87221V12.6829H11.0469V9.91239C11.0469 6.76121 12.9135 5.01917 15.7684 5.01917C17.1362 5.01917 18.567 5.26506 18.567 5.26506V8.3601H16.99C15.4381 8.3601 14.9526 9.32909 14.9526 10.325V12.6829H18.4191L17.8655 16.3192H14.9531V25.1074C20.9297 24.1637 25.5 18.9611 25.5 12.6829V12.6829Z" fill="white"/>
</svg>
