<svg width="14" height="13" viewBox="0 0 14 13" fill="none" xmlns="http://www.w3.org/2000/svg">
<path d="M6.99967 9.625C7.18856 9.625 7.34701 9.565 7.47501 9.445C7.60256 9.32542 7.66634 9.17708 7.66634 9V6.48438C7.66634 6.30729 7.60256 6.16146 7.47501 6.04688C7.34701 5.93229 7.18856 5.875 6.99967 5.875C6.81079 5.875 6.65256 5.93479 6.52501 6.05437C6.39701 6.17437 6.33301 6.32292 6.33301 6.5V9.01562C6.33301 9.19271 6.39701 9.33854 6.52501 9.45312C6.65256 9.56771 6.81079 9.625 6.99967 9.625ZM6.99967 4.625C7.18856 4.625 7.34701 4.565 7.47501 4.445C7.60256 4.32542 7.66634 4.17708 7.66634 4C7.66634 3.82292 7.60256 3.67438 7.47501 3.55438C7.34701 3.43479 7.18856 3.375 6.99967 3.375C6.81079 3.375 6.65256 3.43479 6.52501 3.55438C6.39701 3.67438 6.33301 3.82292 6.33301 4C6.33301 4.17708 6.39701 4.32542 6.52501 4.445C6.65256 4.565 6.81079 4.625 6.99967 4.625ZM6.99967 12.75C6.07745 12.75 5.21079 12.5858 4.39967 12.2575C3.58856 11.9296 2.88301 11.4844 2.28301 10.9219C1.68301 10.3594 1.20812 9.69792 0.858341 8.9375C0.508119 8.17708 0.333008 7.36458 0.333008 6.5C0.333008 5.63542 0.508119 4.82292 0.858341 4.0625C1.20812 3.30208 1.68301 2.64062 2.28301 2.07813C2.88301 1.51563 3.58856 1.07021 4.39967 0.741875C5.21079 0.413958 6.07745 0.25 6.99967 0.25C7.9219 0.25 8.78856 0.413958 9.59967 0.741875C10.4108 1.07021 11.1163 1.51563 11.7163 2.07813C12.3163 2.64062 12.7912 3.30208 13.141 4.0625C13.4912 4.82292 13.6663 5.63542 13.6663 6.5C13.6663 7.36458 13.4912 8.17708 13.141 8.9375C12.7912 9.69792 12.3163 10.3594 11.7163 10.9219C11.1163 11.4844 10.4108 11.9296 9.59967 12.2575C8.78856 12.5858 7.9219 12.75 6.99967 12.75ZM6.99967 11.5C8.47745 11.5 9.7359 11.0131 10.775 10.0394C11.8137 9.06521 12.333 7.88542 12.333 6.5C12.333 5.11458 11.8137 3.93479 10.775 2.96062C9.7359 1.98687 8.47745 1.5 6.99967 1.5C5.5219 1.5 4.26367 1.98687 3.22501 2.96062C2.1859 3.93479 1.66634 5.11458 1.66634 6.5C1.66634 7.88542 2.1859 9.06521 3.22501 10.0394C4.26367 11.0131 5.5219 11.5 6.99967 11.5Z" fill="#263238"/>
</svg>
