<svg width="25" height="26" viewBox="0 0 25 26" fill="none" xmlns="http://www.w3.org/2000/svg">
<path d="M17.7081 2.19057C19.0883 2.19469 20.4108 2.74479 21.3867 3.72072C22.3626 4.69665 22.9127 6.01911 22.9169 7.39927V17.8156C22.9127 19.1957 22.3626 20.5182 21.3867 21.4941C20.4108 22.4701 19.0883 23.0202 17.7081 23.0243H7.29185C5.91169 23.0202 4.58922 22.4701 3.61329 21.4941C2.63737 20.5182 2.08727 19.1957 2.08315 17.8156V7.39927C2.08727 6.01911 2.63737 4.69665 3.61329 3.72072C4.58922 2.74479 5.91169 2.19469 7.29185 2.19057H17.7081V2.19057ZM17.7081 0.107422H7.29185C3.28125 0.107422 0 3.38867 0 7.39927V17.8156C0 21.8262 3.28125 25.1074 7.29185 25.1074H17.7081C21.7187 25.1074 25 21.8262 25 17.8156V7.39927C25 3.38867 21.7187 0.107422 17.7081 0.107422V0.107422Z" fill="white"/>
<path d="M19.2706 7.39941C18.9616 7.39941 18.6595 7.30778 18.4026 7.13609C18.1456 6.9644 17.9453 6.72037 17.8271 6.43486C17.7088 6.14935 17.6779 5.83518 17.7382 5.53209C17.7985 5.22899 17.9473 4.95058 18.1658 4.73206C18.3843 4.51354 18.6627 4.36473 18.9658 4.30444C19.2689 4.24415 19.5831 4.27509 19.8686 4.39335C20.1541 4.51161 20.3981 4.71188 20.5698 4.96884C20.7415 5.22579 20.8331 5.52788 20.8331 5.83691C20.8336 6.04223 20.7935 6.24561 20.7151 6.43538C20.6367 6.62515 20.5217 6.79757 20.3765 6.94275C20.2313 7.08793 20.0589 7.20301 19.8691 7.28137C19.6793 7.35974 19.476 7.39986 19.2706 7.39941V7.39941ZM12.5 8.44071C13.3241 8.44071 14.1297 8.68509 14.815 9.14295C15.5002 9.60081 16.0343 10.2516 16.3497 11.013C16.665 11.7744 16.7476 12.6122 16.5868 13.4205C16.426 14.2288 16.0292 14.9712 15.4464 15.554C14.8637 16.1367 14.1212 16.5336 13.3129 16.6943C12.5046 16.8551 11.6668 16.7726 10.9054 16.4572C10.144 16.1419 9.49325 15.6078 9.03539 14.9225C8.57753 14.2373 8.33315 13.4317 8.33315 12.6076C8.33433 11.5028 8.77372 10.4436 9.5549 9.66246C10.3361 8.88128 11.3952 8.44189 12.5 8.44071V8.44071ZM12.5 6.35756C11.2639 6.35756 10.0555 6.72412 9.02769 7.41088C7.99988 8.09763 7.1988 9.07375 6.72576 10.2158C6.25271 11.3578 6.12894 12.6145 6.37009 13.8269C6.61125 15.0393 7.20651 16.1529 8.08058 17.027C8.95466 17.9011 10.0683 18.4963 11.2807 18.7375C12.4931 18.9786 13.7497 18.8549 14.8918 18.3818C16.0338 17.9088 17.0099 17.1077 17.6967 16.0799C18.3834 15.0521 18.75 13.8437 18.75 12.6076C18.75 10.95 18.0915 9.36025 16.9194 8.18814C15.7473 7.01604 14.1576 6.35756 12.5 6.35756V6.35756Z" fill="white"/>
</svg>
