<svg width="796" height="646" viewBox="0 0 796 646" fill="none" xmlns="http://www.w3.org/2000/svg">
<path d="M795.689 603.688H0V604.144H795.689V603.688Z" fill="#E0E0E0"/>
<path d="M601.001 622.988H546.258V623.444H601.001V622.988Z" fill="#E0E0E0"/>
<path d="M176.708 623.207H145.898V623.663H176.708V623.207Z" fill="#E0E0E0"/>
<path d="M399.438 622.15H336.992V622.606H399.438V622.15Z" fill="#E0E0E0"/>
<path d="M335.397 615.662H307.484V616.118H335.397V615.662Z" fill="#E0E0E0"/>
<path d="M675.636 615.899H591.309V616.355H675.636V615.899Z" fill="#E0E0E0"/>
<path d="M593.176 428.592C597.533 408.507 586.847 388.182 569.31 383.193C551.773 378.204 534.025 390.441 529.669 410.525C525.313 430.609 535.998 450.935 553.535 455.924C571.072 460.913 588.82 448.676 593.176 428.592Z" fill="#F0F0F0"/>
<path d="M447.578 400.933C449.297 388.843 442.133 377.446 431.576 375.477C421.019 373.508 411.067 381.713 409.347 393.803C407.628 405.893 414.793 417.291 425.35 419.26C435.907 421.229 445.859 413.024 447.578 400.933Z" fill="#F0F0F0"/>
<path d="M449.532 401.463C457.038 401.463 463.122 394.495 463.122 385.899C463.122 377.303 457.038 370.335 449.532 370.335C442.026 370.335 435.941 377.303 435.941 385.899C435.941 394.495 442.026 401.463 449.532 401.463Z" fill="#F0F0F0"/>
<path d="M437.358 46.4009C445.427 19.3003 438.95 0 419.264 0C406.884 0 391.527 7.59982 376.568 19.9564C374.881 12.9033 370.123 8.69333 362.468 8.69333C348.989 8.69333 330.418 21.7424 315.857 40.1497C311.757 35.6891 306.33 33.1807 300.675 33.1331C287.769 32.2947 272.157 39.8034 258.583 51.996C257.903 50.9057 257.005 50.0176 255.964 49.4057C254.923 48.7938 253.769 48.4759 252.599 48.4785C245.168 48.0047 235.094 55.5863 230.113 65.3913C229.811 65.9928 229.54 66.5942 229.254 67.2138H441.273C441.91 58.6481 440.589 51.5039 437.358 46.4009Z" fill="#F0F0F0"/>
<path d="M734.957 211.685C738.904 198.454 735.768 189.031 726.125 189.031C720.062 189.031 712.566 192.676 705.262 198.782C704.868 197.081 703.959 195.596 702.696 194.594C701.433 193.592 699.9 193.138 698.371 193.314C691.799 193.314 682.728 199.693 675.598 208.696C673.6 206.51 670.946 205.284 668.183 205.27C661.817 204.851 654.258 208.514 647.622 214.473C647.3 213.946 646.875 213.513 646.38 213.21C645.885 212.906 645.335 212.739 644.773 212.724C641.145 212.487 636.228 216.187 633.793 220.98L633.363 221.854H736.93C737.363 218.303 736.662 214.692 734.957 211.685Z" fill="#F0F0F0"/>
<path d="M545.477 175.564C544.66 175.432 543.836 175.365 543.011 175.363C543.775 162.15 539.367 153.694 529.93 153.694C523.134 153.694 514.78 158.104 506.282 165.558C508.717 139.898 500.919 123.222 483.255 123.222C469.028 123.222 450.997 134.157 433.19 151.762C431.598 141.702 426.379 135.651 417.562 135.651C402.078 135.651 380.07 154.314 362.421 180.63C360.41 177.596 357.831 175.115 354.873 173.371C351.916 171.627 348.655 170.664 345.33 170.552C330.594 169.367 312.277 180.084 295.997 197.543C295.405 196.071 294.462 194.82 293.277 193.933C292.092 193.047 290.713 192.561 289.297 192.531C281.229 191.875 270.201 201.516 263.66 214.401H558.447C565.37 194.864 559.863 177.769 545.477 175.564Z" fill="#F0F0F0"/>
<path d="M442.529 645.986C612.938 645.986 751.081 636.749 751.081 625.355C751.081 613.961 612.938 604.725 442.529 604.725C272.12 604.725 133.977 613.961 133.977 625.355C133.977 636.749 272.12 645.986 442.529 645.986Z" fill="#F5F5F5"/>
<path d="M534.211 194.046L555.265 307.041C555.813 309.991 555.316 313.07 553.884 315.602C552.452 318.134 550.202 319.911 547.626 320.545L359.716 366.472C357.14 367.095 354.454 366.524 352.244 364.885C350.035 363.245 348.482 360.671 347.924 357.724L326.854 244.729C326.312 241.777 326.812 238.698 328.247 236.167C329.681 233.636 331.933 231.859 334.509 231.225L522.419 185.298C524.997 184.676 527.686 185.249 529.896 186.892C532.106 188.535 533.657 191.114 534.211 194.064V194.046Z" fill="#029837"/>
<path opacity="0.4" d="M534.211 194.046L555.265 307.041C555.813 309.991 555.316 313.07 553.884 315.602C552.452 318.134 550.202 319.911 547.626 320.545L359.716 366.472C357.14 367.095 354.454 366.524 352.244 364.885C350.035 363.245 348.482 360.671 347.924 357.724L326.854 244.729C326.312 241.777 326.812 238.698 328.247 236.167C329.681 233.636 331.933 231.859 334.509 231.225L522.419 185.298C524.997 184.676 527.686 185.249 529.896 186.892C532.106 188.535 533.657 191.114 534.211 194.064V194.046Z" fill="black"/>
<path d="M529.58 186.646L466.8 274.91C460.977 283.093 452.89 288.755 443.876 290.959C434.862 293.162 425.461 291.776 417.228 287.029L328.445 235.817C329.882 233.454 332.049 231.805 334.508 231.206L522.418 185.279C524.871 184.681 527.429 185.17 529.58 186.646Z" fill="#A1DBB5"/>
<path d="M304.859 366.737L304.055 368.31L337.354 390.647L338.158 389.075L304.859 366.737Z" fill="#407BFF"/>
<path d="M352.859 398.923L352.055 400.495L364.029 408.528L364.833 406.955L352.859 398.923Z" fill="#407BFF"/>
<path d="M600.751 479.443C600.348 479.444 599.948 479.358 599.573 479.188L550.845 457.099C550.065 456.74 549.442 456.041 549.11 455.157C548.778 454.273 548.765 453.274 549.074 452.379C549.383 451.484 549.989 450.765 550.759 450.379C551.529 449.993 552.401 449.972 553.184 450.32L601.928 472.408C602.618 472.72 603.191 473.298 603.548 474.043C603.905 474.787 604.024 475.65 603.884 476.484C603.745 477.318 603.355 478.07 602.783 478.611C602.211 479.151 601.492 479.445 600.751 479.443Z" fill="#029837" fill-opacity="0.95"/>
<path opacity="0.3" d="M600.751 479.443C600.348 479.444 599.948 479.358 599.573 479.188L550.845 457.099C550.065 456.74 549.442 456.041 549.11 455.157C548.778 454.273 548.765 453.274 549.074 452.379C549.383 451.484 549.989 450.765 550.759 450.379C551.529 449.993 552.401 449.972 553.184 450.32L601.928 472.408C602.618 472.72 603.191 473.298 603.548 474.043C603.905 474.787 604.024 475.65 603.884 476.484C603.745 477.318 603.355 478.07 602.783 478.611C602.211 479.151 601.492 479.445 600.751 479.443Z" fill="black"/>
<path d="M593.06 447.044C592.661 447.042 592.266 446.949 591.898 446.771L565.72 434.834C565.329 434.66 564.971 434.399 564.668 434.067C564.365 433.734 564.123 433.336 563.954 432.896C563.786 432.456 563.696 431.981 563.688 431.501C563.68 431.02 563.756 430.543 563.91 430.095C564.065 429.648 564.294 429.241 564.587 428.896C564.879 428.551 565.228 428.276 565.614 428.086C566 427.896 566.414 427.796 566.834 427.79C567.254 427.785 567.67 427.874 568.059 428.054L594.238 439.937C595.022 440.29 595.652 440.986 595.989 441.871C596.326 442.756 596.343 443.758 596.036 444.657C595.812 445.355 595.407 445.958 594.875 446.385C594.343 446.812 593.709 447.042 593.06 447.044Z" fill="#029837" fill-opacity="0.95"/>
<path opacity="0.5" d="M592.794 447.324C592.395 447.321 592.001 447.228 591.633 447.05L565.455 435.113C565.063 434.939 564.706 434.679 564.403 434.346C564.1 434.014 563.857 433.616 563.689 433.175C563.52 432.735 563.43 432.261 563.422 431.78C563.415 431.299 563.49 430.822 563.645 430.375C563.799 429.928 564.029 429.52 564.321 429.175C564.614 428.83 564.963 428.555 565.348 428.365C565.734 428.176 566.149 428.075 566.568 428.07C566.988 428.064 567.405 428.154 567.794 428.333L593.972 440.216C594.757 440.57 595.387 441.265 595.724 442.15C596.061 443.035 596.078 444.037 595.77 444.936C595.546 445.634 595.141 446.237 594.609 446.664C594.077 447.091 593.444 447.321 592.794 447.324Z" fill="white"/>
<path d="M538.33 478.574C537.933 478.569 537.54 478.482 537.169 478.319L489.634 456.704C489.243 456.53 488.885 456.27 488.582 455.937C488.279 455.604 488.037 455.206 487.868 454.766C487.7 454.326 487.61 453.851 487.602 453.371C487.595 452.89 487.67 452.413 487.824 451.966C487.979 451.519 488.208 451.111 488.501 450.766C488.793 450.421 489.142 450.146 489.528 449.956C489.914 449.766 490.328 449.666 490.748 449.66C491.168 449.655 491.584 449.745 491.974 449.924L539.508 471.466C540.198 471.778 540.77 472.356 541.128 473.101C541.485 473.845 541.604 474.708 541.464 475.542C541.324 476.376 540.935 477.128 540.363 477.668C539.791 478.209 539.072 478.503 538.33 478.501V478.574Z" fill="#263238"/>
</svg>
