<svg width="60" height="62" viewBox="0 0 60 62" fill="none" xmlns="http://www.w3.org/2000/svg">
<g clip-path="url(#clip0_137_939)">
<path fill-rule="evenodd" clip-rule="evenodd" d="M43.8833 41.6075C44.4308 41.3245 45.0598 41.2589 45.651 41.4231C46.2422 41.5874 46.7545 41.9701 47.0908 42.4987L47.2358 42.7622L52.2358 53.0956C52.4142 53.4641 52.5047 53.8713 52.4998 54.2834C52.4948 54.6954 52.3946 55.1002 52.2074 55.464C52.0202 55.8278 51.7516 56.1401 51.4238 56.3748C51.096 56.6095 50.7187 56.7597 50.3233 56.813L50.0008 56.8337H10.0008C9.60198 56.8338 9.20891 56.7353 8.85442 56.5465C8.49993 56.3576 8.19431 56.0839 7.96308 55.7481C7.73185 55.4123 7.58171 55.0243 7.52521 54.6163C7.46871 54.2083 7.50749 53.7923 7.63831 53.403L7.76331 53.093L12.7633 42.7597C13.0436 42.1611 13.5364 41.6972 14.1392 41.4646C14.742 41.232 15.4084 41.2485 15.9998 41.5108C16.5911 41.773 17.0618 42.2608 17.3139 42.8726C17.566 43.4844 17.5801 44.1731 17.3533 44.7953L17.2358 45.0717L14.0458 51.667H45.9558L42.7658 45.0717C42.4698 44.4592 42.4212 43.7502 42.6307 43.1006C42.8402 42.451 43.2908 41.914 43.8833 41.6075ZM30.0008 5.16699C34.6421 5.16699 39.0933 7.07219 42.3752 10.4635C45.6571 13.8548 47.5008 18.4543 47.5008 23.2503C47.5008 29.4038 44.2783 34.4026 40.9433 37.9495C39.1011 39.8829 37.0759 41.6207 34.8983 43.1368L33.9658 43.7723L33.1358 44.3122C33.0058 44.3923 32.8808 44.4672 32.7633 44.5447L32.1208 44.9271C30.8008 45.7021 29.2008 45.7021 27.8808 44.9271L27.2383 44.5422L26.4633 44.0539C26.3203 43.9609 26.1778 43.8671 26.0358 43.7723L25.1033 43.1368C22.9257 41.6207 20.9005 39.8829 19.0583 37.9495C15.7233 34.4026 12.5008 29.4038 12.5008 23.2503C12.5008 18.4543 14.3446 13.8548 17.6264 10.4635C20.9083 7.07219 25.3595 5.16699 30.0008 5.16699ZM30.0008 18.0837C28.6747 18.0837 27.403 18.628 26.4653 19.5969C25.5276 20.5659 25.0008 21.88 25.0008 23.2503C25.0008 24.6206 25.5276 25.9348 26.4653 26.9037C27.403 27.8726 28.6747 28.417 30.0008 28.417C31.3269 28.417 32.5987 27.8726 33.5363 26.9037C34.474 25.9348 35.0008 24.6206 35.0008 23.2503C35.0008 21.88 34.474 20.5659 33.5363 19.5969C32.5987 18.628 31.3269 18.0837 30.0008 18.0837Z" fill="black"/>
</g>
<defs>
<clipPath id="clip0_137_939">
<rect width="60" height="62" fill="white"/>
</clipPath>
</defs>
</svg>
