<svg width="60" height="60" viewBox="0 0 60 60" fill="none" xmlns="http://www.w3.org/2000/svg">
<path d="M40.1607 26.243H41.9033C43.1352 26.2464 44.3556 26.0053 45.4937 25.5338C46.6319 25.0623 47.6651 24.3697 48.5338 23.4961L58.1256 13.8281L55.5216 11.2031L45.7271 20.9977L43.6916 18.9621L53.4861 9.16641L50.7908 6.55195L41.0326 16.309L39.0029 14.2734L48.7974 4.47773L46.1724 1.875L36.5045 11.4668C35.6308 12.3356 34.9381 13.3691 34.4666 14.5074C33.9951 15.6457 33.7541 16.8663 33.7576 18.0984V19.8398L28.7033 24.8941L5.62555 1.875C0.436492 8.30508 3.50095 20.1223 9.34274 25.9652L19.3623 35.9848C22.4736 39.0961 23.0912 39.3738 26.6209 37.9535C27.3814 37.6477 27.658 37.6816 28.367 38.3895L29.8904 39.8109C30.2338 40.1625 30.242 40.2656 30.242 40.9383V41.5875C30.242 44.0578 31.8216 45.4781 32.8623 46.5375L45.0006 58.125L53.4381 49.6875L35.1064 31.2973L40.1607 26.243Z" fill="black"/>
<path d="M26.6449 41.5535C23.1504 42.2695 21.007 42.9293 16.909 38.8312C16.8434 38.7656 16.7754 38.7023 16.7098 38.6367L14.4246 36.3516L1.875 48.75L11.25 58.125L28.125 41.25L26.6449 41.5535Z" fill="black"/>
</svg>
