<svg width="466" height="438" viewBox="0 0 466 438" fill="none" xmlns="http://www.w3.org/2000/svg">
<path d="M303.297 36.1205L106.373 57.5664L136.837 325.464L333.761 304.018L303.297 36.1205Z" fill="#F0F0F0" stroke="white" stroke-linecap="round" stroke-linejoin="round"/>
<path d="M303.297 36.1205L106.373 57.5664L110.588 94.633L307.512 73.1871L303.297 36.1205Z" fill="#029837" fill-opacity="0.95" stroke="white" stroke-linecap="round" stroke-linejoin="round"/>
<path d="M248.586 53.2009L163.575 62.4555C163.18 62.4748 162.794 62.5727 162.439 62.7432C162.083 62.9137 161.768 63.1533 161.51 63.4472C161.253 63.7412 161.06 64.0834 160.942 64.453C160.825 64.8226 160.785 65.2117 160.826 65.5967C160.868 65.9816 160.989 66.3543 161.182 66.6919C161.375 67.0296 161.637 67.3251 161.951 67.5604C162.265 67.7957 162.625 67.9659 163.008 68.0606C163.392 68.1553 163.791 68.1725 164.182 68.1111L249.192 58.8565C249.936 58.7464 250.608 58.3587 251.066 57.7748C251.524 57.1908 251.733 56.4559 251.649 55.7243C251.565 54.9927 251.195 54.3212 250.617 53.8508C250.038 53.3803 249.296 53.1474 248.546 53.2009H248.586Z" fill="white"/>
<path d="M228.648 67.121L186.152 71.7483C185.963 71.7667 185.779 71.822 185.611 71.9108C185.443 71.9997 185.295 72.1204 185.176 72.2658C185.056 72.4113 184.968 72.5786 184.915 72.758C184.862 72.9373 184.847 73.1252 184.869 73.3105C184.91 73.6852 185.101 74.0289 185.4 74.2661C185.699 74.5034 186.083 74.6148 186.466 74.5761L228.971 69.9488C229.343 69.8937 229.679 69.6999 229.908 69.4079C230.137 69.1159 230.241 68.7485 230.199 68.3827C230.158 68.0169 229.973 67.6811 229.683 67.4459C229.394 67.2107 229.023 67.0942 228.648 67.121V67.121Z" fill="white"/>
<path opacity="0.3" d="M260.413 99.1746L149.022 111.297C148.737 111.328 148.476 111.469 148.297 111.689C148.118 111.909 148.035 112.189 148.067 112.468C148.1 112.748 148.244 113.003 148.468 113.178C148.693 113.353 148.979 113.434 149.265 113.403L260.625 101.281C260.911 101.249 261.172 101.108 261.351 100.888C261.53 100.669 261.612 100.388 261.58 100.109C261.548 99.8297 261.404 99.5744 261.179 99.3992C260.955 99.2239 260.668 99.1432 260.383 99.1746H260.413Z" fill="black"/>
<path opacity="0.3" d="M261.272 106.739L133.2 120.681C132.914 120.712 132.654 120.853 132.475 121.073C132.295 121.293 132.213 121.573 132.245 121.852C132.277 122.132 132.421 122.387 132.646 122.562C132.871 122.737 133.157 122.818 133.442 122.787L261.514 108.845C261.66 108.837 261.802 108.799 261.933 108.735C262.064 108.671 262.18 108.582 262.274 108.473C262.368 108.364 262.439 108.238 262.482 108.101C262.525 107.964 262.54 107.821 262.524 107.679C262.508 107.535 262.463 107.396 262.39 107.27C262.318 107.145 262.22 107.035 262.103 106.947C261.986 106.859 261.852 106.795 261.709 106.76C261.566 106.724 261.417 106.717 261.272 106.739Z" fill="black"/>
<path opacity="0.3" d="M228.711 117.943L134.061 128.246C133.776 128.277 133.515 128.418 133.336 128.638C133.157 128.858 133.074 129.138 133.106 129.417C133.139 129.697 133.283 129.952 133.507 130.127C133.732 130.302 134.018 130.383 134.304 130.352L228.943 120.049C229.089 120.04 229.231 120.003 229.362 119.939C229.493 119.875 229.609 119.786 229.703 119.677C229.797 119.568 229.868 119.441 229.911 119.305C229.954 119.168 229.969 119.024 229.953 118.882C229.937 118.74 229.892 118.602 229.82 118.477C229.749 118.352 229.652 118.242 229.536 118.154C229.42 118.067 229.287 118.003 229.145 117.966C229.003 117.93 228.856 117.922 228.711 117.943Z" fill="black"/>
<path opacity="0.3" d="M288.657 95.1576L277.361 96.3879C275.841 96.5533 274.746 97.893 274.916 99.38L276.173 110.435C276.342 111.922 277.711 112.994 279.23 112.828L290.527 111.598C292.046 111.432 293.141 110.093 292.972 108.606L291.715 97.5505C291.546 96.0634 290.177 94.9921 288.657 95.1576Z" stroke="#263238" stroke-linecap="round" stroke-linejoin="round"/>
<path d="M279.369 103.655L283.087 107.086L287.977 99.7598" stroke="#92E3A9" stroke-width="3" stroke-linecap="round" stroke-linejoin="round"/>
<path opacity="0.3" d="M264.49 135.007L153.13 147.129C152.844 147.16 152.583 147.301 152.404 147.521C152.225 147.741 152.143 148.021 152.175 148.3C152.207 148.58 152.351 148.835 152.576 149.01C152.8 149.185 153.087 149.266 153.372 149.235L264.733 137.113C264.874 137.097 265.011 137.054 265.135 136.987C265.26 136.92 265.369 136.829 265.458 136.72C265.547 136.612 265.612 136.487 265.652 136.353C265.691 136.219 265.703 136.079 265.687 135.941C265.671 135.803 265.628 135.669 265.559 135.547C265.49 135.425 265.398 135.318 265.286 135.231C265.175 135.144 265.048 135.08 264.911 135.041C264.774 135.003 264.631 134.991 264.49 135.007V135.007Z" fill="black"/>
<path opacity="0.3" d="M265.346 142.571L137.274 156.512C137.133 156.528 136.996 156.571 136.872 156.638C136.747 156.705 136.637 156.796 136.549 156.905C136.46 157.014 136.394 157.138 136.355 157.272C136.315 157.406 136.303 157.546 136.319 157.684C136.335 157.822 136.379 157.956 136.448 158.078C136.516 158.2 136.609 158.307 136.72 158.394C136.831 158.481 136.959 158.545 137.096 158.584C137.232 158.622 137.375 158.634 137.517 158.618L265.588 144.677C265.874 144.646 266.135 144.505 266.314 144.285C266.493 144.065 266.575 143.785 266.543 143.505C266.511 143.226 266.367 142.971 266.142 142.796C265.918 142.62 265.631 142.54 265.346 142.571Z" fill="black"/>
<path opacity="0.3" d="M232.783 153.777L138.133 164.08C137.848 164.111 137.587 164.252 137.408 164.472C137.229 164.692 137.147 164.972 137.179 165.251C137.211 165.531 137.355 165.786 137.58 165.961C137.804 166.136 138.091 166.217 138.376 166.186L233.015 155.883C233.161 155.874 233.304 155.837 233.434 155.773C233.565 155.709 233.681 155.62 233.775 155.511C233.87 155.402 233.941 155.275 233.984 155.139C234.027 155.002 234.041 154.858 234.026 154.716C234.01 154.574 233.964 154.436 233.893 154.311C233.821 154.186 233.724 154.076 233.608 153.988C233.492 153.901 233.359 153.837 233.217 153.8C233.076 153.764 232.928 153.756 232.783 153.777Z" fill="black"/>
<path opacity="0.3" d="M292.734 130.984L281.437 132.214C279.917 132.38 278.823 133.719 278.992 135.206L280.249 146.261C280.418 147.748 281.787 148.82 283.306 148.654L294.603 147.424C296.123 147.258 297.217 145.919 297.048 144.432L295.791 133.377C295.622 131.89 294.253 130.818 292.734 130.984Z" stroke="#263238" stroke-linecap="round" stroke-linejoin="round"/>
<path d="M283.451 139.489L287.159 142.92L292.049 135.594" stroke="#92E3A9" stroke-width="3" stroke-linecap="round" stroke-linejoin="round"/>
<path opacity="0.3" d="M268.559 170.839L157.199 182.961C156.931 183.011 156.693 183.159 156.532 183.373C156.371 183.588 156.299 183.854 156.329 184.119C156.36 184.384 156.491 184.627 156.697 184.801C156.904 184.975 157.169 185.067 157.441 185.057L268.802 172.915C268.943 172.9 269.08 172.857 269.204 172.79C269.329 172.723 269.438 172.632 269.527 172.523C269.616 172.414 269.682 172.289 269.721 172.156C269.76 172.022 269.772 171.882 269.757 171.744C269.741 171.605 269.697 171.472 269.628 171.35C269.559 171.228 269.467 171.121 269.356 171.034C269.244 170.947 269.117 170.883 268.98 170.844C268.844 170.806 268.701 170.794 268.559 170.809V170.839Z" fill="black"/>
<path opacity="0.3" d="M269.429 178.404L141.347 192.345C141.206 192.358 141.068 192.399 140.943 192.466C140.818 192.532 140.708 192.622 140.62 192.731C140.531 192.84 140.466 192.965 140.428 193.099C140.389 193.233 140.379 193.373 140.397 193.511C140.413 193.65 140.455 193.784 140.524 193.906C140.592 194.028 140.684 194.136 140.794 194.223C140.905 194.31 141.032 194.375 141.169 194.414C141.305 194.454 141.448 194.466 141.59 194.451L269.661 180.51C269.808 180.5 269.95 180.461 270.081 180.396C270.212 180.331 270.328 180.241 270.422 180.131C270.516 180.021 270.587 179.894 270.63 179.757C270.673 179.62 270.687 179.476 270.672 179.333C270.656 179.191 270.61 179.053 270.539 178.929C270.467 178.804 270.37 178.695 270.254 178.608C270.137 178.521 270.004 178.458 269.863 178.423C269.721 178.388 269.573 178.381 269.429 178.404V178.404Z" fill="black"/>
<path opacity="0.3" d="M236.853 189.61L142.204 199.912C141.918 199.944 141.657 200.085 141.478 200.305C141.299 200.525 141.217 200.805 141.249 201.084C141.281 201.363 141.425 201.619 141.65 201.794C141.874 201.969 142.161 202.05 142.446 202.018L237.086 191.706C237.371 191.676 237.632 191.536 237.812 191.317C237.992 191.098 238.076 190.818 238.045 190.539C238.015 190.26 237.872 190.004 237.648 189.828C237.425 189.652 237.139 189.57 236.853 189.6V189.61Z" fill="black"/>
<path opacity="0.3" d="M296.806 166.808L285.509 168.038C283.99 168.204 282.895 169.543 283.064 171.03L284.321 182.086C284.49 183.573 285.859 184.644 287.379 184.478L298.675 183.248C300.195 183.083 301.29 181.743 301.121 180.256L299.863 169.201C299.694 167.714 298.325 166.643 296.806 166.808Z" stroke="#263238" stroke-linecap="round" stroke-linejoin="round"/>
<path d="M287.521 175.32L291.229 178.751L296.13 171.414" stroke="#92E3A9" stroke-width="3" stroke-linecap="round" stroke-linejoin="round"/>
<path opacity="0.3" d="M272.63 206.671L161.269 218.793C161.002 218.844 160.764 218.991 160.603 219.206C160.441 219.42 160.369 219.687 160.399 219.951C160.43 220.216 160.562 220.46 160.768 220.634C160.974 220.807 161.239 220.899 161.512 220.89L272.872 208.768C273.021 208.762 273.167 208.727 273.302 208.664C273.436 208.601 273.556 208.512 273.653 208.401C273.75 208.291 273.823 208.162 273.867 208.022C273.911 207.883 273.925 207.736 273.908 207.591C273.892 207.446 273.844 207.306 273.77 207.18C273.695 207.054 273.595 206.944 273.474 206.858C273.354 206.771 273.217 206.71 273.072 206.678C272.927 206.646 272.776 206.644 272.63 206.671V206.671Z" fill="black"/>
<path opacity="0.3" d="M273.501 214.235L145.419 228.176C145.278 228.19 145.141 228.231 145.016 228.297C144.891 228.364 144.781 228.454 144.692 228.563C144.603 228.671 144.538 228.797 144.5 228.931C144.462 229.065 144.451 229.205 144.47 229.343C144.485 229.481 144.528 229.615 144.596 229.737C144.664 229.86 144.756 229.967 144.867 230.055C144.977 230.142 145.105 230.207 145.241 230.246C145.378 230.285 145.521 230.297 145.662 230.282L273.734 216.341C274.02 216.309 274.282 216.167 274.462 215.946C274.641 215.726 274.725 215.445 274.694 215.164C274.661 214.887 274.517 214.633 274.293 214.459C274.07 214.285 273.785 214.204 273.501 214.235V214.235Z" fill="black"/>
<path opacity="0.3" d="M240.967 225.437L146.318 235.74C146.176 235.753 146.039 235.794 145.914 235.861C145.789 235.927 145.679 236.017 145.59 236.126C145.502 236.235 145.437 236.36 145.398 236.494C145.36 236.628 145.35 236.768 145.368 236.906C145.383 237.045 145.426 237.179 145.494 237.301C145.562 237.423 145.654 237.531 145.765 237.618C145.876 237.705 146.003 237.77 146.14 237.809C146.276 237.848 146.419 237.861 146.56 237.846L241.2 227.543C241.341 227.528 241.478 227.486 241.603 227.42C241.728 227.353 241.838 227.263 241.927 227.155C242.016 227.046 242.083 226.922 242.122 226.788C242.162 226.655 242.175 226.515 242.16 226.376C242.146 226.237 242.104 226.103 242.036 225.98C241.968 225.857 241.876 225.749 241.765 225.661C241.654 225.574 241.526 225.509 241.389 225.47C241.252 225.432 241.109 225.421 240.967 225.437V225.437Z" fill="black"/>
<path opacity="0.3" d="M300.88 202.642L289.583 203.872C288.064 204.038 286.969 205.377 287.138 206.864L288.395 217.92C288.564 219.407 289.933 220.478 291.453 220.312L302.75 219.082C304.269 218.917 305.364 217.577 305.195 216.09L303.938 205.035C303.769 203.548 302.4 202.476 300.88 202.642Z" stroke="#263238" stroke-linecap="round" stroke-linejoin="round"/>
<path d="M291.598 211.14L295.306 214.571L300.206 207.244" stroke="#92E3A9" stroke-width="3" stroke-linecap="round" stroke-linejoin="round"/>
<path opacity="0.3" d="M276.711 242.496L165.351 254.618C165.21 254.632 165.073 254.674 164.948 254.741C164.823 254.808 164.713 254.898 164.624 255.006C164.535 255.115 164.468 255.239 164.428 255.373C164.388 255.506 164.376 255.646 164.391 255.784C164.406 255.923 164.449 256.056 164.517 256.179C164.586 256.301 164.678 256.408 164.788 256.496C164.899 256.583 165.026 256.648 165.163 256.687C165.299 256.726 165.442 256.738 165.583 256.724L276.944 244.602C277.085 244.587 277.222 244.545 277.347 244.478C277.472 244.411 277.582 244.321 277.671 244.213C277.76 244.105 277.827 243.98 277.867 243.847C277.906 243.713 277.919 243.573 277.904 243.435C277.871 243.156 277.727 242.902 277.504 242.726C277.281 242.551 276.996 242.468 276.711 242.496Z" fill="black"/>
<path opacity="0.3" d="M277.568 250.039L149.487 263.98C149.338 263.985 149.191 264.021 149.057 264.084C148.923 264.147 148.803 264.236 148.706 264.347C148.608 264.457 148.535 264.586 148.491 264.726C148.448 264.865 148.433 265.012 148.45 265.157C148.467 265.302 148.514 265.441 148.589 265.568C148.664 265.694 148.764 265.804 148.884 265.89C149.004 265.976 149.141 266.038 149.287 266.07C149.432 266.102 149.583 266.104 149.729 266.076L277.801 252.135C277.95 252.132 278.098 252.098 278.233 252.036C278.369 251.974 278.49 251.885 278.588 251.775C278.687 251.664 278.761 251.535 278.806 251.396C278.851 251.256 278.866 251.109 278.85 250.963C278.834 250.818 278.787 250.677 278.712 250.55C278.638 250.423 278.537 250.313 278.416 250.226C278.296 250.139 278.158 250.078 278.012 250.045C277.867 250.013 277.715 250.011 277.568 250.039Z" fill="black"/>
<path opacity="0.3" d="M245.007 261.271L150.358 271.574C150.073 271.605 149.812 271.746 149.633 271.966C149.454 272.186 149.371 272.466 149.403 272.745C149.435 273.025 149.58 273.28 149.804 273.455C150.029 273.631 150.315 273.711 150.601 273.68L245.25 263.377C245.534 263.342 245.794 263.2 245.971 262.979C246.149 262.759 246.231 262.479 246.2 262.201C246.185 262.063 246.142 261.929 246.073 261.807C246.005 261.686 245.913 261.578 245.802 261.492C245.691 261.406 245.564 261.341 245.427 261.304C245.291 261.266 245.148 261.255 245.007 261.271V261.271Z" fill="black"/>
<path opacity="0.3" d="M304.958 238.474L293.662 239.704C292.142 239.87 291.047 241.209 291.216 242.696L292.473 253.752C292.643 255.239 294.011 256.31 295.531 256.144L306.828 254.914C308.347 254.749 309.442 253.409 309.273 251.922L308.016 240.867C307.847 239.38 306.478 238.309 304.958 238.474Z" stroke="#263238" stroke-linecap="round" stroke-linejoin="round"/>
<path d="M295.666 246.974L299.374 250.405L304.274 243.078" stroke="#92E3A9" stroke-width="3" stroke-linecap="round" stroke-linejoin="round"/>
<path opacity="0.3" d="M279.814 269.815L168.454 281.956C168.168 281.988 167.907 282.129 167.728 282.349C167.549 282.568 167.467 282.849 167.499 283.128C167.531 283.407 167.675 283.663 167.9 283.838C168.124 284.013 168.411 284.094 168.696 284.062L280.057 271.94C280.198 271.927 280.336 271.886 280.461 271.819C280.586 271.753 280.696 271.663 280.784 271.554C280.873 271.445 280.938 271.32 280.976 271.186C281.015 271.052 281.025 270.912 281.007 270.774C280.994 270.634 280.953 270.497 280.886 270.373C280.819 270.249 280.727 270.139 280.616 270.049C280.505 269.96 280.377 269.893 280.239 269.853C280.102 269.813 279.957 269.8 279.814 269.815V269.815Z" fill="black"/>
<path opacity="0.3" d="M280.67 277.407L152.598 291.348C152.449 291.352 152.301 291.386 152.166 291.448C152.03 291.51 151.909 291.599 151.811 291.709C151.712 291.819 151.638 291.948 151.593 292.087C151.548 292.227 151.533 292.374 151.549 292.52C151.565 292.665 151.612 292.806 151.687 292.933C151.761 293.06 151.862 293.17 151.983 293.257C152.103 293.344 152.241 293.406 152.386 293.438C152.532 293.47 152.684 293.472 152.83 293.444L280.912 279.503C281.18 279.453 281.418 279.305 281.579 279.091C281.74 278.876 281.813 278.61 281.782 278.345C281.751 278.081 281.62 277.837 281.414 277.663C281.207 277.489 280.942 277.398 280.67 277.407Z" fill="black"/>
<path opacity="0.3" d="M248.102 288.6L153.462 298.903C153.321 298.918 153.184 298.96 153.059 299.026C152.934 299.093 152.824 299.183 152.735 299.292C152.646 299.4 152.579 299.525 152.54 299.658C152.5 299.792 152.487 299.932 152.502 300.07C152.535 300.35 152.68 300.606 152.906 300.782C153.131 300.958 153.418 301.04 153.705 301.009L248.344 290.706C248.485 290.691 248.622 290.648 248.747 290.581C248.871 290.514 248.981 290.423 249.069 290.314C249.158 290.205 249.224 290.08 249.263 289.947C249.303 289.813 249.315 289.673 249.299 289.535C249.283 289.396 249.239 289.263 249.171 289.141C249.102 289.019 249.009 288.912 248.898 288.825C248.787 288.738 248.659 288.674 248.523 288.635C248.386 288.597 248.243 288.585 248.102 288.6V288.6Z" fill="black"/>
<path opacity="0.3" d="M308.068 265.802L296.771 267.032C295.251 267.198 294.157 268.538 294.326 270.025L295.583 281.08C295.752 282.567 297.121 283.638 298.64 283.473L309.937 282.242C311.457 282.077 312.551 280.737 312.382 279.25L311.125 268.195C310.956 266.708 309.587 265.637 308.068 265.802Z" stroke="#263238" stroke-linecap="round" stroke-linejoin="round"/>
<path d="M298.77 274.312L302.478 277.743L307.378 270.416" stroke="#92E3A9" stroke-width="3" stroke-linecap="round" stroke-linejoin="round"/>
<path d="M187.224 199.877C187.322 198.74 187.034 197.604 186.406 196.644L185.163 194.488L182.698 195.853L184.042 198.166C184.709 199.323 184.436 200.035 183.607 200.49C182.779 200.945 182.011 200.826 181.344 199.669L178.465 194.666L175.373 195.259L178.667 200.945C180.172 203.545 182.355 204.287 184.911 202.922C185.317 202.694 185.694 202.418 186.032 202.102C185.889 201.776 185.863 201.412 185.961 201.07C186.058 200.728 186.272 200.429 186.568 200.223C186.766 200.073 186.988 199.956 187.224 199.877Z" fill="#92E3A9"/>
<path d="M173.788 192.522L174.374 193.511H177.779L176.293 190.94C175.627 189.783 175.889 189.051 176.718 188.597C177.546 188.142 178.324 188.28 178.991 189.447L180.001 191.177L182.457 189.813L181.547 188.241C180.042 185.65 177.859 184.899 175.303 186.323C174.716 186.632 174.195 187.048 173.768 187.549C174.348 187.731 174.956 187.815 175.566 187.796L173.141 188.686C172.963 189.333 172.929 190.011 173.041 190.672C173.152 191.334 173.407 191.964 173.788 192.522V192.522Z" fill="#92E3A9"/>
<path d="M192.668 181.981C192.992 181.822 193.331 181.693 193.679 181.595C194.982 181.022 195.275 179.183 195.164 177.887L193.82 176.256L190.203 178.233L192.466 182.129C192.525 182.07 192.594 182.02 192.668 181.981V181.981Z" fill="#92E3A9"/>
<path d="M208.076 189.722L210.531 188.358L201.145 172.162L198.811 173.447C199.559 173.625 200.095 173.972 200.115 174.505C199.387 174.604 198.498 174.505 197.71 174.644L202.439 186.637L196.457 179.34C196.474 179.502 196.449 179.665 196.385 179.815C196.322 179.965 196.222 180.097 196.094 180.201C195.821 180.388 195.427 180.388 195.215 180.636C195.002 180.883 195.033 181.179 194.851 181.397C194.669 181.614 194.386 181.674 194.164 181.832C193.942 181.99 193.699 182.396 193.447 182.663C193.325 182.788 193.171 182.88 193.002 182.93L199.65 194.399L201.913 193.133L195.275 181.684L203.803 192.085L206.268 190.721L201.287 178.134L208.076 189.722Z" fill="#92E3A9"/>
<path d="M214.29 175.623C214.47 175.71 214.63 175.833 214.76 175.982C214.89 176.132 214.988 176.305 215.048 176.493C215.261 175.271 214.99 174.016 214.29 172.983L213.068 170.867C211.562 168.276 209.471 167.574 206.864 169.018L203.035 171.144L212.431 187.349L214.866 185.995C214.078 185.51 213.199 185.095 212.452 184.571C212.101 184.351 211.812 184.049 211.613 183.691C211.519 183.51 211.48 183.306 211.501 183.105C211.523 182.903 211.604 182.711 211.734 182.554C211.905 182.412 212.114 182.322 212.336 182.292C212.558 182.262 212.783 182.295 212.987 182.386L211.502 179.815L212.734 179.133C213.412 178.773 214.002 178.274 214.462 177.669C213.947 176.868 213.048 175.168 214.29 175.623ZM211.391 176.868L210.158 177.551L206.976 172.063L208.208 171.381C209.037 170.926 209.703 171.045 210.37 172.202L211.785 174.634C212.452 175.741 212.219 176.364 211.391 176.868Z" fill="#92E3A9"/>
<path d="M228.222 178.577L226.888 176.263L222.604 178.636L216.34 167.829L216.057 168.047C215.875 168.213 215.652 168.332 215.411 168.393C215.289 168.42 215.162 168.402 215.052 168.344C214.942 168.286 214.858 168.191 214.815 168.076C214.78 167.923 214.78 167.765 214.815 167.612C214.816 166.692 214.519 165.795 213.966 165.051L211.945 166.198L221.331 182.393L228.222 178.577Z" fill="#92E3A9"/>
<path d="M227.05 172.913C227.333 172.191 228.212 171.924 228.707 171.272C228.752 171.205 228.792 171.136 228.829 171.064L227.818 169.403L230.374 167.989C230.327 167.831 230.245 167.686 230.132 167.564C229.765 167.389 229.373 167.269 228.97 167.208C228.908 167.085 228.876 166.949 228.878 166.812C228.881 166.675 228.916 166.54 228.983 166.419C229.049 166.298 229.144 166.195 229.259 166.117C229.375 166.039 229.508 165.989 229.647 165.972C229.819 165.972 230.021 165.972 230.152 165.893C230.244 165.786 230.291 165.648 230.283 165.507L230.051 165.112L226.474 167.089L223.868 162.581L228.354 160.079L227.01 157.766L219.938 161.721L226.889 173.714C226.901 173.441 226.955 173.171 227.05 172.913V172.913Z" fill="#92E3A9"/>
<path d="M236.459 174.011L235.116 171.697L230.62 174.189L229.276 171.925L227.619 173.447L227.043 173.991L229.367 177.996L236.459 174.011Z" fill="#92E3A9"/>
<path d="M233.115 155.195C233.115 155.541 232.862 155.926 232.519 155.956C232.344 155.954 232.171 155.927 232.004 155.877C231.691 155.882 231.379 155.853 231.074 155.788C231.008 155.761 230.947 155.725 230.892 155.679L227.922 157.33L229.266 159.654L231.983 158.141L240.066 171.983L242.663 170.54L234.58 156.698L237.308 155.185L235.964 152.871L233.176 154.414C233.125 154.671 233.145 154.938 233.115 155.195Z" fill="#92E3A9"/>
<path d="M244.46 165.004L246.481 168.494L249.209 166.982C249.274 166.807 249.355 166.638 249.452 166.477C250.052 165.619 250.861 164.919 251.806 164.441L253.059 163.679L252.23 162.236L247.734 164.737L244.986 159.991L248.562 158.014L247.219 155.7L243.642 157.678L241.035 153.139L245.531 150.648L244.188 148.334L237.115 152.289L242.217 161.099C243.45 160.456 244.066 162.77 244.46 165.004Z" fill="#92E3A9"/>
<path d="M192.135 197C192.559 197.069 192.812 197.484 193.145 197.761C193.267 197.87 193.407 197.957 193.56 198.018C193.753 197.943 193.942 197.857 194.125 197.761C196.672 196.347 197.207 194.093 195.712 191.492L195.56 191.235L192.064 191.146L193.206 193.124C193.873 194.281 193.61 195.012 192.782 195.467C191.953 195.922 191.175 195.774 190.508 194.617L185.457 185.866C184.78 184.71 185.053 183.988 185.881 183.523C186.71 183.058 187.477 183.217 188.154 184.373L191.579 190.306C192.631 190.051 193.709 189.918 194.792 189.91L190.842 183.098C189.347 180.507 187.093 179.805 184.537 181.219C181.981 182.633 181.446 184.897 182.951 187.488L187.831 195.912C188.139 196.561 188.6 197.13 189.176 197.572C189.752 198.013 190.427 198.315 191.145 198.453C191.139 198.394 191.139 198.334 191.145 198.275C191.024 197.632 191.509 196.881 192.135 197Z" fill="#92E3A9"/>
<path d="M227.021 150.5L234.952 146.1C232.679 146.713 230.678 148.571 228.334 148.314C227.91 148.205 227.465 148.205 227.041 148.314C226.776 148.482 226.585 148.74 226.506 149.039C226.428 149.338 226.467 149.654 226.616 149.926C226.719 150.137 226.855 150.331 227.021 150.5Z" fill="#92E3A9"/>
<path d="M207.126 161.542C207.109 161.372 207.144 161.199 207.227 161.048C207.422 161.114 207.627 161.148 207.834 161.147L210.572 159.634C211 159.16 211.489 158.741 212.027 158.388C212.546 158.117 213.095 157.904 213.663 157.756L214.27 157.578L219.321 154.789C219.375 154.688 219.447 154.598 219.534 154.522C219.612 154.472 219.697 154.432 219.786 154.404L214.573 152.861L213.168 153.633L213.017 154.72L207.005 157.864C206.41 158.228 205.747 158.473 205.055 158.586C204.797 158.616 204.536 158.616 204.277 158.586L195.71 163.342C195.778 163.739 195.893 164.128 196.053 164.499C195.55 164.407 195.072 164.215 194.649 163.935L192.891 164.924C194.143 165.735 195.376 166.565 196.578 167.445L207.126 161.542Z" fill="#92E3A9"/>
<path d="M243.804 141.194L239.661 138.92L237.701 140.008C238.856 141.17 240.348 141.957 241.975 142.262L243.804 141.194Z" fill="#92E3A9"/>
<path d="M266.081 165.133L250.441 138.15C249.833 137.106 248.827 136.341 247.644 136.02C246.461 135.7 245.197 135.85 244.127 136.439L242.247 137.487L242.965 138.17C243.712 138.901 244.48 139.643 245.177 140.424L246.127 139.9C246.259 139.828 246.414 139.809 246.559 139.848C246.705 139.887 246.829 139.98 246.905 140.107L262.555 167.1C262.628 167.23 262.645 167.383 262.604 167.525C262.562 167.668 262.465 167.789 262.333 167.861L241.045 179.726C242.884 179.835 244.743 179.578 246.582 179.786C247.244 179.867 247.902 179.983 248.552 180.132L264.333 171.372C264.869 171.077 265.34 170.681 265.719 170.207C266.097 169.732 266.376 169.189 266.539 168.609C266.701 168.029 266.744 167.423 266.666 166.826C266.587 166.229 266.389 165.654 266.081 165.133V165.133Z" fill="#92E3A9"/>
<path d="M170.238 199.472L162.883 186.757C162.845 186.692 162.82 186.621 162.81 186.548C162.8 186.474 162.805 186.399 162.825 186.328C162.845 186.256 162.879 186.189 162.925 186.13C162.971 186.071 163.029 186.022 163.095 185.985L184.312 174.2C184.241 174.041 184.151 173.883 184.09 173.725C184.39 173.713 184.69 173.746 184.979 173.824L193.557 169.068C193.274 168.979 193.001 168.87 192.728 168.771L188.687 167.199L185.454 168.999L188.97 171.105C187.747 170.373 185.252 170.274 183.1 170.304L161.145 182.535C160.077 183.128 159.293 184.112 158.965 185.271C158.637 186.429 158.793 187.668 159.397 188.714L165.782 199.729C166.075 199.65 166.379 199.581 166.672 199.531C167.481 199.417 168.3 199.377 169.117 199.412C169.491 199.41 169.866 199.43 170.238 199.472V199.472Z" fill="#92E3A9"/>
<path d="M196.449 204.437C196.809 204.752 197.218 205.009 197.661 205.198C198.116 205.396 198.722 205.87 198.369 206.187C196.732 206.918 194.711 206.375 193.105 207.175C192.226 207.591 191.377 208.411 190.438 208.164C191.574 208.839 192.597 209.683 193.469 210.666L233.589 188.399C233.589 188.241 233.64 188.083 233.67 187.915C233.671 187.604 233.745 187.297 233.885 187.017C234.025 186.738 234.229 186.494 234.48 186.303C234.732 186.113 235.024 185.981 235.335 185.917C235.647 185.854 235.969 185.861 236.277 185.937C236.797 185.915 237.318 185.968 237.823 186.095L242.824 183.317C242.138 182.16 241.325 181.079 240.399 180.094L196.449 204.437Z" fill="#92E3A9"/>
<path d="M189.951 210.971C188.983 210.663 188.092 210.162 187.334 209.497L179.332 213.947C179.267 213.984 179.195 214.007 179.121 214.017C179.047 214.027 178.971 214.022 178.899 214.002C178.826 213.983 178.758 213.95 178.699 213.904C178.64 213.859 178.591 213.803 178.554 213.739L171.482 201.607C170.804 201.378 170.083 201.297 169.37 201.37C168.552 201.528 167.834 202.457 168.279 203.14C168.696 203.15 169.104 203.269 169.459 203.485C169.814 203.7 170.104 204.004 170.299 204.366C169.864 204.705 169.385 204.987 168.875 205.206L174.937 215.697C175.238 216.227 175.645 216.692 176.132 217.066C176.62 217.44 177.179 217.715 177.777 217.874C178.375 218.033 178.999 218.074 179.613 217.994C180.227 217.914 180.819 217.714 181.353 217.407L191.84 211.584L191.719 211.514C191.14 211.302 190.55 211.121 189.951 210.971V210.971Z" fill="#92E3A9"/>
<g opacity="0.2">
<path d="M187.224 199.875C187.322 198.739 187.034 197.602 186.406 196.642L185.163 194.486L182.698 195.851L184.042 198.164C184.709 199.321 184.436 200.033 183.607 200.488C182.779 200.943 182.011 200.824 181.344 199.667L178.465 194.664L175.373 195.258L178.667 200.943C180.172 203.543 182.355 204.285 184.911 202.92C185.317 202.692 185.694 202.417 186.032 202.1C185.889 201.774 185.863 201.41 185.961 201.068C186.058 200.726 186.272 200.427 186.568 200.221C186.766 200.071 186.988 199.954 187.224 199.875Z" fill="black"/>
<path d="M173.788 192.52L174.374 193.509H177.779L176.293 190.938C175.627 189.781 175.889 189.05 176.718 188.595C177.546 188.14 178.324 188.278 178.991 189.445L180.001 191.175L182.457 189.811L181.547 188.239C180.042 185.648 177.859 184.897 175.303 186.321C174.716 186.63 174.195 187.046 173.768 187.547C174.348 187.729 174.956 187.813 175.566 187.794L173.141 188.684C172.963 189.331 172.929 190.009 173.041 190.67C173.152 191.332 173.407 191.963 173.788 192.52V192.52Z" fill="black"/>
<path d="M192.668 181.979C192.992 181.82 193.331 181.691 193.679 181.593C194.982 181.02 195.275 179.181 195.164 177.885L193.82 176.254L190.203 178.231L192.466 182.127C192.525 182.068 192.594 182.018 192.668 181.979V181.979Z" fill="black"/>
<path d="M208.074 189.722L210.53 188.358L201.143 172.162L198.81 173.447C199.557 173.625 200.093 173.972 200.113 174.505C199.385 174.604 198.496 174.505 197.708 174.644L202.437 186.637L196.455 179.34C196.472 179.502 196.447 179.665 196.383 179.815C196.32 179.965 196.22 180.097 196.092 180.201C195.819 180.388 195.425 180.388 195.213 180.636C195 180.883 195.031 181.179 194.849 181.397C194.667 181.614 194.384 181.674 194.162 181.832C193.94 181.99 193.697 182.396 193.445 182.663C193.323 182.788 193.17 182.88 193 182.93L199.648 194.399L201.911 193.133L195.273 181.684L203.801 192.085L206.266 190.721L201.285 178.134L208.074 189.722Z" fill="black"/>
<path d="M214.29 175.623C214.47 175.71 214.63 175.833 214.76 175.982C214.89 176.132 214.988 176.305 215.048 176.493C215.261 175.271 214.99 174.016 214.29 172.983L213.068 170.867C211.562 168.276 209.471 167.574 206.864 169.018L203.035 171.144L212.431 187.349L214.866 185.995C214.078 185.51 213.199 185.095 212.452 184.571C212.101 184.351 211.812 184.049 211.613 183.691C211.519 183.51 211.48 183.306 211.501 183.105C211.523 182.903 211.604 182.711 211.734 182.554C211.905 182.412 212.114 182.322 212.336 182.292C212.558 182.262 212.783 182.295 212.987 182.386L211.502 179.815L212.734 179.133C213.412 178.773 214.002 178.274 214.462 177.669C213.947 176.868 213.048 175.168 214.29 175.623ZM211.391 176.868L210.158 177.551L206.976 172.063L208.208 171.381C209.037 170.926 209.703 171.045 210.37 172.202L211.785 174.634C212.452 175.741 212.219 176.364 211.391 176.868Z" fill="black"/>
<path d="M228.222 178.577L226.888 176.263L222.604 178.636L216.34 167.829L216.057 168.047C215.875 168.213 215.652 168.332 215.411 168.393C215.289 168.42 215.162 168.402 215.052 168.344C214.942 168.286 214.858 168.191 214.815 168.076C214.78 167.923 214.78 167.765 214.815 167.612C214.816 166.692 214.519 165.795 213.966 165.051L211.945 166.198L221.331 182.393L228.222 178.577Z" fill="black"/>
<path d="M227.048 172.913C227.331 172.191 228.21 171.924 228.705 171.272C228.75 171.205 228.79 171.136 228.827 171.064L227.816 169.403L230.372 167.989C230.325 167.831 230.243 167.686 230.13 167.564C229.763 167.389 229.372 167.269 228.968 167.208C228.906 167.085 228.874 166.949 228.876 166.812C228.879 166.675 228.914 166.54 228.981 166.419C229.047 166.298 229.142 166.195 229.257 166.117C229.373 166.039 229.506 165.989 229.645 165.972C229.817 165.972 230.019 165.972 230.15 165.893C230.242 165.786 230.289 165.648 230.282 165.507L230.049 165.112L226.473 167.089L223.866 162.581L228.352 160.079L227.008 157.766L219.936 161.721L226.887 173.714C226.899 173.441 226.953 173.171 227.048 172.913V172.913Z" fill="black"/>
<path d="M236.459 174.011L235.116 171.697L230.62 174.189L229.276 171.925L227.619 173.447L227.043 173.991L229.367 177.996L236.459 174.011Z" fill="black"/>
<path d="M233.113 155.193C233.113 155.539 232.861 155.924 232.517 155.954C232.342 155.952 232.169 155.925 232.002 155.875C231.689 155.881 231.378 155.851 231.072 155.786C231.006 155.759 230.945 155.723 230.89 155.677L227.92 157.328L229.264 159.652L231.982 158.139L240.064 171.982L242.661 170.538L234.578 156.696L237.306 155.183L235.962 152.869L233.174 154.412C233.123 154.669 233.143 154.936 233.113 155.193Z" fill="black"/>
<path d="M244.46 165.002L246.481 168.493L249.209 166.98C249.274 166.805 249.355 166.636 249.452 166.475C250.052 165.617 250.861 164.917 251.806 164.439L253.059 163.677L252.23 162.234L247.734 164.735L244.986 159.989L248.562 158.012L247.219 155.698L243.642 157.676L241.035 153.137L245.531 150.646L244.188 148.332L237.115 152.287L242.217 161.097C243.45 160.454 244.066 162.768 244.46 165.002Z" fill="black"/>
<path d="M192.133 197C192.557 197.069 192.81 197.484 193.143 197.761C193.265 197.87 193.405 197.957 193.558 198.018C193.751 197.943 193.94 197.857 194.124 197.761C196.67 196.347 197.205 194.093 195.71 191.492L195.558 191.235L192.062 191.146L193.204 193.124C193.871 194.281 193.608 195.012 192.78 195.467C191.951 195.922 191.173 195.774 190.506 194.617L185.455 185.866C184.778 184.71 185.051 183.988 185.879 183.523C186.708 183.058 187.475 183.217 188.152 184.373L191.577 190.306C192.629 190.051 193.707 189.918 194.79 189.91L190.84 183.098C189.345 180.507 187.091 179.805 184.535 181.219C181.979 182.633 181.444 184.897 182.949 187.488L187.829 195.912C188.137 196.561 188.598 197.13 189.174 197.572C189.75 198.013 190.425 198.315 191.143 198.453C191.138 198.394 191.138 198.334 191.143 198.275C191.022 197.632 191.507 196.881 192.133 197Z" fill="black"/>
<path d="M227.021 150.5L234.952 146.1C232.679 146.713 230.678 148.571 228.334 148.314C227.91 148.205 227.465 148.205 227.041 148.314C226.776 148.482 226.585 148.74 226.506 149.039C226.428 149.338 226.467 149.654 226.616 149.926C226.719 150.137 226.855 150.331 227.021 150.5Z" fill="black"/>
<path d="M207.126 161.541C207.109 161.37 207.144 161.197 207.227 161.046C207.422 161.113 207.627 161.146 207.834 161.145L210.572 159.632C211 159.158 211.489 158.739 212.027 158.386C212.546 158.115 213.095 157.902 213.663 157.754L214.27 157.576L219.321 154.787C219.375 154.686 219.447 154.596 219.534 154.52C219.612 154.47 219.697 154.43 219.786 154.402L214.573 152.859L213.168 153.631L213.017 154.718L207.005 157.862C206.41 158.226 205.747 158.471 205.055 158.584C204.797 158.614 204.536 158.614 204.277 158.584L195.71 163.34C195.778 163.737 195.893 164.126 196.053 164.497C195.55 164.405 195.072 164.213 194.649 163.933L192.891 164.922C194.143 165.733 195.376 166.563 196.578 167.443L207.126 161.541Z" fill="black"/>
<path d="M243.804 141.194L239.661 138.92L237.701 140.008C238.856 141.17 240.348 141.957 241.975 142.262L243.804 141.194Z" fill="black"/>
<path d="M266.079 165.133L250.439 138.15C249.831 137.106 248.825 136.341 247.642 136.02C246.459 135.7 245.195 135.85 244.125 136.439L242.245 137.487L242.963 138.17C243.71 138.901 244.478 139.643 245.175 140.424L246.125 139.9C246.257 139.828 246.412 139.809 246.557 139.848C246.703 139.887 246.827 139.98 246.903 140.107L262.553 167.1C262.626 167.23 262.643 167.383 262.602 167.525C262.56 167.668 262.463 167.789 262.331 167.861L241.043 179.726C242.882 179.835 244.741 179.578 246.58 179.786C247.242 179.867 247.9 179.983 248.55 180.132L264.332 171.372C264.868 171.077 265.338 170.681 265.717 170.207C266.095 169.732 266.374 169.189 266.537 168.609C266.699 168.029 266.743 167.423 266.664 166.826C266.586 166.229 266.387 165.654 266.079 165.133V165.133Z" fill="black"/>
<path d="M170.238 199.47L162.883 186.755C162.845 186.69 162.82 186.619 162.81 186.546C162.8 186.472 162.805 186.398 162.825 186.326C162.845 186.254 162.879 186.187 162.925 186.128C162.971 186.07 163.029 186.02 163.095 185.983L184.312 174.198C184.241 174.039 184.151 173.881 184.09 173.723C184.39 173.711 184.69 173.744 184.979 173.822L193.557 169.066C193.274 168.977 193.001 168.868 192.728 168.769L188.687 167.197L185.454 168.997L188.97 171.103C187.747 170.371 185.252 170.272 183.1 170.302L161.145 182.533C160.077 183.126 159.293 184.11 158.965 185.269C158.637 186.427 158.793 187.666 159.397 188.712L165.782 199.727C166.075 199.648 166.379 199.579 166.672 199.529C167.481 199.415 168.3 199.375 169.117 199.411C169.491 199.408 169.866 199.428 170.238 199.47V199.47Z" fill="black"/>
<path d="M196.447 204.437C196.807 204.752 197.216 205.009 197.66 205.198C198.114 205.396 198.72 205.87 198.367 206.187C196.73 206.918 194.709 206.375 193.103 207.175C192.224 207.591 191.375 208.411 190.436 208.164C191.572 208.839 192.595 209.683 193.467 210.666L233.588 188.399C233.588 188.241 233.638 188.083 233.668 187.915C233.669 187.604 233.743 187.297 233.883 187.017C234.023 186.738 234.227 186.494 234.478 186.303C234.73 186.113 235.022 185.981 235.334 185.917C235.645 185.854 235.967 185.861 236.275 185.937C236.795 185.915 237.316 185.968 237.821 186.095L242.822 183.317C242.136 182.16 241.323 181.079 240.397 180.094L196.447 204.437Z" fill="black"/>
<path d="M189.947 210.971C188.979 210.663 188.088 210.162 187.33 209.497L179.328 213.947C179.263 213.984 179.191 214.007 179.117 214.017C179.043 214.027 178.967 214.022 178.895 214.002C178.822 213.983 178.755 213.95 178.695 213.904C178.636 213.859 178.587 213.803 178.55 213.739L171.478 201.607C170.8 201.378 170.079 201.297 169.366 201.37C168.548 201.528 167.83 202.457 168.275 203.14C168.693 203.15 169.1 203.269 169.455 203.485C169.81 203.7 170.1 204.004 170.296 204.366C169.86 204.705 169.381 204.987 168.871 205.206L174.933 215.697C175.234 216.227 175.641 216.692 176.128 217.066C176.616 217.44 177.175 217.715 177.773 217.874C178.371 218.033 178.995 218.074 179.609 217.994C180.223 217.914 180.815 217.714 181.349 217.407L191.836 211.584L191.715 211.514C191.136 211.302 190.546 211.121 189.947 210.971V210.971Z" fill="black"/>
</g>
<path opacity="0.3" d="M144.461 175.666C150.624 180.096 155.776 201.373 156.241 220.881C156.706 240.389 166.345 273.285 167.496 278.673C168.648 284.062 168.224 291.833 175.377 281.017C182.53 270.2 203.455 251.424 212.174 257.662C220.893 263.901 206.213 284.873 198.262 296.164C190.31 307.456 189.502 327.339 179.974 339.787C170.447 352.236 161.839 371.032 152.503 370.745C143.167 370.458 81.334 415.347 81.334 415.347L82.5464 353.907L138.116 264.92L144.461 175.666Z" fill="black" fill-opacity="0.7"/>
<path d="M217.245 260.678C216.932 262.606 206.05 276.715 199.655 287.275C193.259 297.835 187.268 316.215 185.661 318.915C184.055 321.614 164.444 338.472 159.069 345.522C153.694 352.572 144.096 355.686 134.507 362.33C128.344 366.602 109.138 388.641 96.195 403.858C89.0013 412.311 83.7374 418.689 83.7374 418.689L1 397.579C1 397.579 7.85016 392.052 16.8625 384.597H16.9231L17.014 384.528C31.8257 372.218 52.4671 354.846 58.1655 348.29C67.3496 337.731 80.1406 325.183 80.1406 325.183C79.3626 310.52 80.9488 296.628 79.5445 291.349C78.817 288.59 77.5238 272.899 76.5134 268.074C74.0583 255.744 63.3789 242.969 62.1766 237.937C60.9743 232.904 46.8799 211.478 53.7604 207.523C55.0112 206.752 56.4981 206.434 57.9634 206.623C67.2586 207.879 74.9171 229.849 80.1911 235.445C82.451 238.094 84.498 240.911 86.3138 243.869C90.4764 250.326 94.5582 257.583 94.5582 257.583C96.1546 251.324 84.5659 229.028 81.3631 207.909C78.1603 186.789 68.9762 175.448 81.3631 174.143C82.3809 174.031 83.4112 174.119 84.3941 174.4C93.1134 176.892 96.8921 194.62 102.106 211.824C102.59 213.406 106.561 224.767 109.653 233.527C111.674 239.262 113.29 243.879 113.29 243.879C113.684 233.122 110.259 223.115 109.693 213.366C109.451 209.461 110.704 193.809 109.127 178.167C107.774 164.967 108.39 159.618 113.664 158.58C114.794 158.381 115.945 158.328 117.089 158.422C126.233 158.986 129.476 182.765 129.476 192.039C129.476 197.428 130.415 207.948 131.204 215.838C131.779 221.543 132.275 225.874 132.275 225.874C132.275 225.874 133.871 212.773 132.679 184.515C132.406 178.325 132.82 173.896 135.306 172.106C136.67 171.117 138.64 170.949 141.469 171.701C149.461 173.817 152.057 202.797 152.057 213.752C152.057 224.707 158.453 243.474 159.655 258.245C160.857 273.017 166.091 291.171 166.091 291.171C166.091 291.171 169.051 292.347 171.042 291.962C173.032 291.576 186.833 271.623 186.833 271.623C193.259 257.969 205.767 253.826 212.577 255.358C215.709 256.06 217.73 257.949 217.245 260.678Z" fill="white"/>
<path opacity="0.4" d="M217.245 260.681C216.932 262.609 206.05 276.718 199.655 287.278C193.259 297.838 187.268 316.218 185.662 318.918C184.055 321.617 164.444 338.475 159.069 345.525C153.694 352.575 144.096 355.689 134.508 362.333C128.345 366.605 109.138 388.644 96.1953 403.861C97.6199 398.343 100.813 391.294 109.158 384.521C123.646 372.745 124.515 363.51 132.305 355.689C140.095 347.868 153.815 350.211 158.746 340.858C163.676 331.504 180.873 322.863 184.469 314.646C188.066 306.43 180.873 304.69 187.268 294.802C193.664 284.915 199.867 282.512 198.958 278.636C198.049 274.76 195.361 268.887 200.908 263.993C204.373 260.948 208.445 257.121 212.608 255.361C215.709 256.063 217.73 257.952 217.245 260.681Z" fill="#92E3A9"/>
<path opacity="0.4" d="M113.587 307.09C110.929 305.785 113.061 303.184 111.192 301.019C109.323 298.854 105.059 312.835 104.12 312.884C103.18 312.933 100.321 305.775 99.1892 305.063C98.0576 304.351 97.3908 307.347 95.7843 312.884C94.1779 318.421 88.2774 321.229 84.8523 325.184C81.4273 329.139 60.8263 350.644 55.7644 358.722C50.7026 366.8 19.4424 382.788 17.0176 384.509C31.8293 372.218 52.4707 354.846 58.1691 348.291C67.3531 337.731 80.1441 325.184 80.1441 325.184C79.3662 310.521 80.9524 296.629 79.548 291.349C78.8206 288.591 77.5273 272.899 76.517 268.074C74.0618 255.744 63.3825 242.97 62.1801 237.937C60.9778 232.905 46.8835 211.478 53.7639 207.524C55.0148 206.753 56.5016 206.435 57.967 206.624C56.4009 207.711 54.8753 209.274 56.2999 211.567C58.8359 215.582 61.6244 219.804 61.6244 224.243C61.6244 228.683 69.3536 234.931 72.3543 239.074C75.3551 243.217 72.5564 241.754 74.5569 247.429C76.5574 253.105 78.9519 251.918 80.1441 257.653C81.3363 263.388 88.0046 267.046 86.9438 274.194C85.8829 281.343 90.1365 291.29 90.1365 291.29C90.1365 291.29 93.602 281.65 92.339 276.459C91.0761 271.268 92.5411 264.722 91.3287 262.962C90.3183 261.38 87.55 250.643 86.2769 243.969C90.4396 250.425 94.5214 257.682 94.5214 257.682C96.1177 251.424 84.529 229.128 81.3262 208.008C78.1234 186.888 68.9394 175.548 81.3262 174.242C82.344 174.131 83.3743 174.218 84.3573 174.499C89.6414 184.16 85.9637 191.308 84.7917 195.5C83.5086 200.068 91.1468 211.795 92.2784 219.873C93.2888 227.417 95.3701 226.636 95.6429 226.497C95.4105 226.705 93.4403 228.673 94.6325 234.269C95.8753 240.201 104.736 254.291 104.736 258.226C104.736 262.161 104.009 268.638 104.009 270.556C104.009 272.474 111.081 285.308 111.93 288.67C112.778 292.031 111.596 282.193 113.526 278.782C115.456 275.371 116.476 263.467 116.729 264.109C120.053 272.375 116.254 308.375 113.587 307.09Z" fill="#92E3A9"/>
<path opacity="0.4" d="M119.309 218.735C117.046 222.087 117.107 248.249 113.247 248.338C111.378 248.338 110.469 241.763 109.711 233.507C111.732 239.242 113.348 243.859 113.348 243.859C113.742 233.102 110.317 223.096 109.751 213.347C109.509 209.441 110.762 193.789 109.186 178.148C107.832 164.948 108.448 159.599 113.722 158.561C114.833 162.08 117.561 166.233 118.259 170.089C119.208 175.409 117.349 179.809 115.753 180.471C114.157 181.134 113.884 184.564 115.884 185.069C117.885 185.573 115.884 210.539 116.814 213.742C117.743 216.946 121.583 215.433 119.309 218.735Z" fill="#92E3A9"/>
<path opacity="0.4" d="M140.071 189.448C135.919 191.238 135.696 194.441 134.454 199.039C133.211 203.637 136.232 210.35 134.454 220.9C132.675 231.45 139.162 238.252 134.454 250.058C129.745 261.864 131.958 240.171 131.17 230.283C130.898 225.468 130.919 220.641 131.231 215.828C131.807 221.533 132.302 225.864 132.302 225.864C132.302 225.864 133.898 212.763 132.706 184.504C132.433 178.315 132.847 173.885 135.333 172.096C139.596 175.883 143.607 187.925 140.071 189.448Z" fill="#92E3A9"/>
<path d="M83.7387 418.698C83.7387 418.698 124.91 369.024 134.509 362.34C144.107 355.656 153.705 352.561 159.07 345.531C164.435 338.501 184.066 321.663 185.663 318.924C187.259 316.185 193.26 297.805 199.656 287.284C206.051 276.764 216.933 262.566 217.246 260.687C218.64 252.075 196.261 251.69 186.865 271.642C186.865 271.642 173.074 291.585 171.073 291.981C169.073 292.376 166.122 291.19 166.122 291.19C166.122 291.19 160.889 273.046 159.687 258.265C158.484 243.483 152.089 224.697 152.089 213.771C152.089 202.846 149.492 173.836 141.5 171.72C133.508 169.604 132.296 174.963 132.71 184.574C133.902 212.832 132.306 225.933 132.306 225.933C132.306 225.933 129.507 201.382 129.507 192.098C129.507 182.814 126.264 159.034 117.121 158.481C108.725 157.957 107.553 162.574 109.159 178.256C110.766 193.937 109.482 209.549 109.725 213.455C110.321 223.234 113.766 233.23 113.322 243.967C113.322 243.967 102.925 214.513 102.127 211.893C96.3377 192.691 92.3266 172.916 81.3341 174.103C68.9472 175.408 78.1414 186.749 81.3341 207.868C84.5268 228.988 96.1256 251.284 94.5292 257.543C94.5292 257.543 84.941 240.507 80.1621 235.405C74.1 228.988 64.9462 201.026 53.7516 207.483C46.8711 211.438 61.0059 232.933 62.1981 237.966C63.3903 242.998 74.0798 255.763 76.5349 268.103C77.5453 272.928 78.8082 288.619 79.566 291.378C80.9703 296.658 79.3841 310.549 80.1621 325.212C80.1621 325.212 67.371 337.73 58.187 348.29C49.0029 358.849 1.02148 397.579 1.02148 397.579" stroke="#263238" stroke-linecap="round" stroke-linejoin="round"/>
<path d="M166.121 291.182C167.965 295.636 167.965 300.619 166.121 305.073" stroke="#263238" stroke-linecap="round" stroke-linejoin="round"/>
<path d="M169.484 292.01C170.631 292.834 171.481 293.993 171.912 295.321C172.342 296.648 172.33 298.075 171.879 299.396" stroke="#263238" stroke-linecap="round" stroke-linejoin="round"/>
<path d="M132.305 225.865C132.305 225.865 135.507 247.964 134.103 252.067" stroke="#263238" stroke-linecap="round" stroke-linejoin="round"/>
<path d="M113.322 243.859C113.665 245.995 113.665 248.17 113.322 250.306" stroke="#263238" stroke-linecap="round" stroke-linejoin="round"/>
<path d="M94.5391 257.545C94.5391 257.545 95.1352 260.877 94.5391 261.658" stroke="#263238" stroke-linecap="round" stroke-linejoin="round"/>
<path d="M195.854 276.318C195.854 276.318 199.471 278.237 200.653 281.015" stroke="#263238" stroke-linecap="round" stroke-linejoin="round"/>
<path d="M113.453 184.504C114.626 184.78 115.85 184.762 117.014 184.453C118.177 184.143 119.242 183.553 120.111 182.734" stroke="#263238" stroke-linecap="round" stroke-linejoin="round"/>
<path d="M114.674 216.283C114.674 216.283 121.868 218.627 124.474 216.283" stroke="#263238" stroke-linecap="round" stroke-linejoin="round"/>
<path d="M138.102 223.126C138.102 223.126 142.891 221.366 146.093 222.345" stroke="#263238" stroke-linecap="round" stroke-linejoin="round"/>
<path d="M92.3379 229.384C92.3379 229.384 96.1368 224.49 99.1375 225.864" stroke="#263238" stroke-linecap="round" stroke-linejoin="round"/>
<path d="M76.7466 243.859C76.7466 243.859 73.3518 245.422 72.3516 247.083" stroke="#263238" stroke-linecap="round" stroke-linejoin="round"/>
<path d="M80.1406 325.183C80.9735 324.269 81.7113 323.275 82.3432 322.217C82.9393 321.041 82.1411 308.523 82.3432 300.465" stroke="#263238" stroke-linecap="round" stroke-linejoin="round"/>
<path d="M122.07 374.463C117.362 379.624 102.924 388.978 97.1348 394.643" stroke="#263238" stroke-linecap="round" stroke-linejoin="round"/>
<path d="M141.097 257.545C138.702 264.199 141.299 272.603 141.097 276.331C140.895 280.059 140.087 297.095 140.087 297.095" stroke="#263238" stroke-linecap="round" stroke-linejoin="round"/>
<path d="M119.31 257.545C116.117 262.825 117.117 269.865 118.118 273.365C119.118 276.865 118.229 291.162 118.229 291.162" stroke="#263238" stroke-linecap="round" stroke-linejoin="round"/>
<path d="M84.9395 274.363C84.6749 277.807 85.3734 281.255 86.9602 284.34" stroke="#263238" stroke-linecap="round" stroke-linejoin="round"/>
<path d="M104.722 264.002C102.924 270.458 105.328 273.385 105.53 274.364" stroke="#263238" stroke-linecap="round" stroke-linejoin="round"/>
<path opacity="0.3" d="M267.054 221.361L263.649 202.021C263.499 201.162 263.528 200.282 263.734 199.434C263.94 198.586 264.319 197.787 264.849 197.086C265.378 196.385 266.047 195.796 266.815 195.354C267.583 194.913 268.434 194.628 269.318 194.516L276.946 193.528C276.946 193.528 274.4 188.475 282.593 173.753C290.787 159.03 330.181 119.926 360.047 185.618C389.913 251.31 417.202 385.176 417.202 385.176C417.202 385.176 336.587 293.302 334.02 288.595C331.454 283.889 306.913 286.707 301.245 274.08C295.576 261.454 283.675 225.424 283.675 225.424L274.46 226.66C272.765 226.885 271.047 226.458 269.666 225.47C268.286 224.482 267.35 223.009 267.054 221.361V221.361Z" fill="black" fill-opacity="0.7"/>
<path d="M338.101 176.987L322.632 179.736L301.132 183.562L272.974 188.575C272.434 188.672 271.879 188.664 271.342 188.551C270.806 188.437 270.297 188.222 269.845 187.916C269.394 187.61 269.008 187.22 268.711 186.768C268.414 186.316 268.211 185.811 268.114 185.282L261.931 152.011C261.736 150.944 261.98 149.845 262.611 148.954C263.241 148.063 264.206 147.453 265.295 147.255L281.673 144.289L305.497 140.057L330.422 135.618C330.962 135.521 331.516 135.529 332.053 135.642C332.59 135.755 333.099 135.971 333.55 136.277C334.002 136.583 334.387 136.973 334.684 137.425C334.981 137.877 335.184 138.382 335.282 138.91L341.465 172.182C341.572 172.714 341.569 173.261 341.457 173.792C341.345 174.323 341.126 174.827 340.812 175.275C340.499 175.722 340.098 176.104 339.633 176.398C339.167 176.692 338.646 176.892 338.101 176.987V176.987Z" fill="#92E3A9"/>
<path opacity="0.3" d="M327.157 154.9L322.63 179.737L301.13 183.563C294.906 180.884 284.641 176.217 282.59 173.676C280.145 170.71 280.489 153.229 281.671 144.29L305.495 140.059C313.891 145.724 327.157 154.9 327.157 154.9Z" fill="black" fill-opacity="0.7"/>
<path opacity="0.3" d="M277.247 187.814L272.974 188.575C272.434 188.672 271.879 188.664 271.342 188.551C270.806 188.438 270.297 188.222 269.845 187.916C269.394 187.61 269.008 187.22 268.711 186.768C268.414 186.316 268.211 185.811 268.114 185.283L261.931 152.011C261.736 150.944 261.98 149.846 262.611 148.955C263.241 148.064 264.206 147.453 265.295 147.255L269.559 146.494C268.47 146.691 267.506 147.302 266.877 148.194C266.249 149.085 266.007 150.184 266.204 151.25L272.388 184.521C272.485 185.05 272.688 185.555 272.985 186.007C273.282 186.459 273.668 186.849 274.119 187.155C274.571 187.461 275.079 187.676 275.616 187.789C276.153 187.902 276.707 187.911 277.247 187.814V187.814Z" fill="black" fill-opacity="0.7"/>
<path d="M338.101 176.987L322.632 179.736L301.132 183.562L272.974 188.575C272.434 188.672 271.879 188.664 271.342 188.551C270.806 188.437 270.297 188.222 269.845 187.916C269.394 187.61 269.008 187.22 268.711 186.768C268.414 186.316 268.211 185.811 268.114 185.282L261.931 152.011C261.736 150.944 261.98 149.845 262.611 148.954C263.241 148.063 264.206 147.453 265.295 147.255L281.673 144.289L305.497 140.057L330.422 135.618C330.962 135.521 331.516 135.529 332.053 135.642C332.59 135.755 333.099 135.971 333.55 136.277C334.002 136.583 334.387 136.973 334.684 137.425C334.981 137.877 335.184 138.382 335.282 138.91L341.465 172.182C341.572 172.714 341.569 173.261 341.457 173.792C341.345 174.323 341.126 174.827 340.812 175.275C340.499 175.722 340.098 176.104 339.633 176.398C339.167 176.692 338.646 176.892 338.101 176.987V176.987Z" stroke="#263238" stroke-linecap="round" stroke-linejoin="round"/>
<path d="M333.51 133.86L268.646 145.519C266.382 145.926 264.884 148.052 265.3 150.267L271.518 183.396C271.933 185.612 274.106 187.078 276.37 186.671L341.234 175.012C343.498 174.605 344.996 172.479 344.58 170.264L338.362 137.135C337.946 134.919 335.774 133.453 333.51 133.86Z" stroke="#263238" stroke-width="0.996394" stroke-linecap="round" stroke-linejoin="round"/>
<path d="M331.691 137.862L270.566 148.732C269.468 148.928 268.74 149.957 268.939 151.032L275.027 183.815C275.227 184.89 276.279 185.603 277.377 185.407L338.502 174.536C339.6 174.341 340.328 173.312 340.129 172.237L334.041 139.454C333.841 138.379 332.789 137.666 331.691 137.862Z" stroke="#263238" stroke-linecap="round" stroke-linejoin="round"/>
<path d="M342.376 176.225L338.133 176.977C339.217 176.777 340.176 176.166 340.8 175.277C341.425 174.388 341.665 173.292 341.467 172.231L335.284 138.96C335.186 138.431 334.983 137.926 334.686 137.474C334.389 137.022 334.004 136.632 333.552 136.326C333.101 136.02 332.592 135.804 332.055 135.691C331.518 135.578 330.964 135.57 330.424 135.667L334.698 134.906C335.788 134.715 336.911 134.955 337.821 135.571C338.732 136.188 339.356 137.133 339.557 138.198L345.741 171.469C345.935 172.536 345.691 173.635 345.06 174.526C344.43 175.417 343.465 176.028 342.376 176.225V176.225Z" stroke="#263238" stroke-linecap="round" stroke-linejoin="round"/>
<path d="M465.261 282.803L423.423 392.633C423.423 392.633 405.924 360.004 389.758 329.808C376.846 305.663 364.782 283.021 363.156 279.689C359.508 272.184 347.051 256.463 347.051 256.463C347.051 256.463 334.27 249.305 328.42 236.837C322.57 224.368 316.134 179.766 316.134 179.766C316.134 179.766 299.332 173.577 295.321 170.868C291.31 168.158 287.652 143.123 287.652 140.266C287.652 137.409 291.694 131.684 291.694 131.684C291.694 131.684 290.795 127.491 295.927 123.26C297.605 121.912 299.465 120.797 301.454 119.947H301.555C301.555 119.947 300.888 110.485 305.919 107.726C306.16 107.593 306.41 107.478 306.667 107.38C311.153 105.69 325.864 103.505 325.864 103.505C327.943 101.716 330.364 100.349 332.987 99.4803C335.593 98.7783 349.9 102.031 357.892 103.959C361.105 104.731 363.297 105.284 363.297 105.284C363.297 105.284 376.816 105.887 379.372 107.38C381.155 108.524 382.784 109.883 384.221 111.424V111.424L384.474 111.711C384.474 111.711 396.527 114.163 399.084 118.484C401.64 122.805 402.731 144.241 400.912 158.172C399.094 172.104 402.357 195.744 402.357 195.744C402.357 195.744 406.126 214.006 409.046 220.938C411.966 227.869 465.261 282.803 465.261 282.803Z" fill="white"/>
<path opacity="0.4" d="M389.758 329.808C376.846 305.663 364.782 283.021 363.156 279.689C359.508 272.184 347.051 256.463 347.051 256.463C347.051 256.463 334.27 249.305 328.42 236.837C322.57 224.369 316.134 179.766 316.134 179.766C316.134 179.766 299.332 173.577 295.321 170.868C291.31 168.159 287.652 143.124 287.652 140.266C287.652 137.409 291.694 131.684 291.694 131.684C291.694 131.684 290.795 127.492 295.927 123.26C295.927 124.387 295.927 126.285 295.927 129.271C295.806 134.937 302.626 169.098 304.313 168.06C306 167.021 308.607 164.52 307.92 162.315C307.92 162.315 304.616 149.056 301.494 119.947H301.595C301.595 119.947 300.928 110.485 305.96 107.727C305.094 109.776 304.539 111.937 304.313 114.143C304.202 118.751 309.799 158.232 311.992 159.23C314.184 160.229 319.741 154.969 319.741 154.969C319.741 154.969 317.842 143.766 318.518 138.991C318.518 138.991 335.422 149.076 335.927 160.525C335.977 161.781 339.221 179.727 339.221 179.727C339.221 179.727 324.682 206.818 339.524 231.537C339.524 231.537 331.976 227.107 330.178 220.068C330.178 220.068 327.985 240.772 343.575 251.707C343.575 251.707 354.76 240.96 365.803 239.595C365.803 239.595 366.005 240.307 358.609 246.012C351.213 251.717 350.213 254.258 350.213 254.258C350.213 254.258 358.215 246.348 364.611 246.012C364.611 246.012 358.013 253.477 358.215 255.039C358.417 256.602 377.078 287.826 383.868 309.608C386.636 318.705 388.525 325.27 389.758 329.808Z" fill="#92E3A9"/>
<path opacity="0.4" d="M337.361 122.588C337.361 122.588 342.746 126.543 344.343 122.588C345.259 120.472 345.842 118.231 346.071 115.944C346.071 115.944 348.142 115.014 350.112 119.899C352.082 124.783 371.834 126.029 376.462 128.53C381.089 131.032 382.928 128.53 382.928 128.53C384.006 129.397 384.745 130.601 385.021 131.94C385.297 133.278 385.093 134.669 384.444 135.877C382.201 140.415 388.556 140.82 391.021 137.478C393.486 134.137 391.577 147.04 385.484 148.355C385.484 148.355 385.656 153.991 381.736 157.856H385.06C385.06 157.856 376.209 164.728 373.855 165.104C371.501 165.48 382.615 169.326 380.554 170.137C378.493 170.947 372.653 170.878 372.653 170.878C372.653 170.878 376.431 173.439 376.462 175.13C376.492 176.821 374.673 178.096 373.855 176.682C373.037 175.268 366.51 155.019 363.257 147.534C360.003 140.049 346.566 134.127 337.361 122.588Z" fill="#92E3A9"/>
<path opacity="0.4" d="M384.216 111.354C372.88 108.318 357.674 103.997 357.674 103.997L357.886 103.889C361.099 104.66 363.291 105.214 363.291 105.214C363.291 105.214 376.81 105.817 379.366 107.31C381.149 108.454 382.778 109.812 384.216 111.354V111.354Z" fill="#92E3A9"/>
<path d="M368.272 128.804C358.411 126.827 351.369 135.073 351.369 135.073C351.369 135.073 361.17 143.754 363.342 147.482C365.514 151.209 369.121 163.776 369.121 163.776C373.253 164.429 380.871 160.256 382.7 149.182C384.529 138.108 378.083 130.772 368.272 128.804Z" fill="#92E3A9"/>
<path d="M423.423 392.632C423.423 392.632 366.843 287.193 363.156 279.688C359.468 272.184 347.051 256.463 347.051 256.463C347.051 256.463 334.27 249.304 328.42 236.836C322.57 224.368 316.134 179.766 316.134 179.766C316.134 179.766 299.332 173.576 295.321 170.867C291.31 168.158 287.652 143.123 287.652 140.265C287.652 137.408 291.694 131.683 291.694 131.683C291.694 131.683 290.239 124.91 301.555 119.897C301.555 119.897 300.827 109.525 306.667 107.33C311.153 105.64 325.864 103.455 325.864 103.455C327.943 101.666 330.364 100.299 332.987 99.4304C336.634 98.4416 363.297 105.234 363.297 105.234C363.297 105.234 376.816 105.837 379.372 107.33C381.241 108.537 382.943 109.976 384.434 111.612C384.434 111.612 396.487 114.064 399.043 118.385C401.599 122.705 402.691 144.141 400.872 158.073C399.053 172.004 402.317 195.645 402.317 195.645C402.317 195.645 406.085 213.907 409.005 220.838C411.925 227.769 465.261 282.803 465.261 282.803" stroke="#263238" stroke-linecap="round" stroke-linejoin="round"/>
<path d="M375.525 178.31C375.525 178.31 372.968 177.776 369.685 165.981C366.401 154.185 365.532 148.668 358.722 141.677C353.893 136.734 342.84 128.656 337.364 122.585C331.888 116.514 325.836 111.61 321.107 115.367C317.328 118.333 314.863 126.035 318.187 137.92C322.461 153.186 335.939 160.454 335.939 160.454L339.233 179.655C339.233 179.655 324.936 207.676 341.051 234.125" stroke="#263238" stroke-linecap="round" stroke-linejoin="round"/>
<path d="M351.318 135.072C351.318 135.072 358.391 126.836 368.221 128.804C378.052 130.771 384.438 138.098 382.649 149.182C380.861 160.266 373.203 164.428 369.07 163.776" stroke="#263238" stroke-linecap="round" stroke-linejoin="round"/>
<path d="M325.834 103.434C324.358 107.066 323.222 110.822 322.439 114.656" stroke="#263238" stroke-linecap="round" stroke-linejoin="round"/>
<path d="M319.854 142.154C319.854 142.154 320.702 154.365 322.46 158.113C324.218 161.86 327.138 164.905 328.411 169.73C329.684 174.555 329.876 182.06 330.24 183.138C330.604 184.215 332.715 184.492 332.715 184.492C335.746 184.561 336.969 183.019 338.717 180.666" stroke="#263238" stroke-linecap="round" stroke-linejoin="round"/>
<path d="M301.584 119.877C301.584 119.877 304.322 145.96 306.514 157.044C308.707 168.128 312.577 169.729 318.932 173.309C325.287 176.888 328.793 184.185 329.348 185.282C329.904 186.38 331.985 186.498 331.985 186.498C333.208 186.399 334.387 186.002 335.413 185.344C336.44 184.687 337.283 183.788 337.866 182.731" stroke="#263238" stroke-linecap="round" stroke-linejoin="round"/>
<path d="M291.708 131.664C291.021 132.702 296.881 159.191 299.932 166.873C302.983 174.556 303.327 175.772 311.4 177.947C319.472 180.122 325.605 183.741 327.787 182.466" stroke="#263238" stroke-linecap="round" stroke-linejoin="round"/>
<path d="M347.77 117.01C347.77 117.01 351.962 126.838 349.194 133.304" stroke="#263238" stroke-linecap="round" stroke-linejoin="round"/>
<path d="M363.289 105.215C370.16 107.873 377.23 110.012 384.436 111.612" stroke="#263238" stroke-linecap="round" stroke-linejoin="round"/>
<path d="M391.053 139.178C391.053 139.178 387.841 144.922 382.971 146.158" stroke="#263238" stroke-linecap="round" stroke-linejoin="round"/>
<path d="M382.962 132.918C382.962 132.918 381.81 135.884 380.588 136.705" stroke="#263238" stroke-linecap="round" stroke-linejoin="round"/>
<path d="M387.002 156.51C387.002 156.51 379.697 161.918 372.686 163.322" stroke="#263238" stroke-linecap="round" stroke-linejoin="round"/>
<path d="M369.684 165.992C369.684 165.992 372.715 169.74 380.585 170.095" stroke="#263238" stroke-linecap="round" stroke-linejoin="round"/>
<path d="M346.041 149.587C346.041 149.587 353.194 142.864 357.276 143.793" stroke="#263238" stroke-linecap="round" stroke-linejoin="round"/>
<path d="M360.044 150.953C360.044 150.953 354.629 154.908 353.639 154.908" stroke="#263238" stroke-linecap="round" stroke-linejoin="round"/>
<path d="M304.283 171.923C304.283 171.923 306.082 172.249 307.486 170.123" stroke="#263238" stroke-linecap="round" stroke-linejoin="round"/>
<path d="M310.68 162.293C310.68 162.293 315.024 159.662 317.863 159.158" stroke="#263238" stroke-linecap="round" stroke-linejoin="round"/>
<path d="M348.953 251.478C349.852 250.697 358.248 244.052 363.442 241.699" stroke="#263238" stroke-linecap="round" stroke-linejoin="round"/>
<path d="M359.844 248.335C359.248 248.157 354.479 253.041 351.963 254.999" stroke="#263238" stroke-linecap="round" stroke-linejoin="round"/>
<path d="M362.205 262.818C362.205 262.818 378.199 292.481 381.796 304.346" stroke="#263238" stroke-linecap="round" stroke-linejoin="round"/>
<path d="M409.049 220.877C410.403 228.164 414.798 233.533 417.202 236.44" stroke="#263238" stroke-linecap="round" stroke-linejoin="round"/>
<path opacity="0.4" d="M358.634 131.662C356.31 133.066 358.755 137.653 360.048 139.997C361.341 142.34 367.121 146.068 368.323 149.588C369.525 153.108 377.123 153.009 379.437 149.588C381.75 146.167 381.457 139.334 375.153 134.134C368.848 128.933 361.937 129.684 358.634 131.662Z" fill="white"/>
<path d="M314.269 328.711C303.979 327 293.401 328.75 284.258 333.678C275.116 338.605 267.949 346.418 263.926 355.843C259.904 365.268 259.263 375.749 262.108 385.576C264.954 395.403 271.117 403.997 279.594 409.956" stroke="#263238" stroke-linecap="round" stroke-linejoin="round"/>
<path d="M333.518 336.591C329.234 333.564 324.449 331.282 319.373 329.848" stroke="#263238" stroke-linecap="round" stroke-linejoin="round"/>
<path d="M328.869 412.764C335.096 409.39 340.441 404.652 344.487 398.921C348.532 393.189 351.167 386.62 352.187 379.726C353.206 372.832 352.582 365.801 350.363 359.182C348.145 352.564 344.391 346.537 339.397 341.574" stroke="#263238" stroke-linecap="round" stroke-linejoin="round"/>
<path d="M331.1 427.023L333.848 429.396L329.564 415.029" stroke="#263238" stroke-linecap="round" stroke-linejoin="round"/>
<path d="M298.77 417.787C305.562 418.927 312.53 418.559 319.158 416.709L327.857 424.223" stroke="#263238" stroke-linecap="round" stroke-linejoin="round"/>
<path d="M288.184 414.723C289.908 415.45 291.676 416.074 293.478 416.591" stroke="#263238" stroke-linecap="round" stroke-linejoin="round"/>
<path d="M310.167 351.273C315.89 352.231 321.039 355.25 324.601 359.736C328.164 364.223 329.881 369.851 329.415 375.515C328.949 381.178 326.333 386.465 322.084 390.336C317.834 394.207 312.257 396.381 306.452 396.43C300.646 396.478 295.032 394.399 290.715 390.6C286.398 386.801 283.69 381.559 283.124 375.904C282.559 370.25 284.177 364.593 287.66 360.047C291.142 355.501 296.238 352.396 301.943 351.343" stroke="#263238" stroke-linecap="round" stroke-linejoin="round"/>
<path d="M301.944 398.524C295.214 397.402 289.216 393.71 285.267 388.261C281.319 382.812 279.743 376.051 280.888 369.465" stroke="#263238" stroke-linecap="round" stroke-linejoin="round"/>
<path d="M330.477 382.254C328.892 386.542 326.149 390.33 322.539 393.213C318.929 396.096 314.587 397.968 309.977 398.627" stroke="#263238" stroke-linecap="round" stroke-linejoin="round"/>
<path d="M282.869 363.179C285.478 357.628 290.059 353.194 295.759 350.702C301.459 348.21 307.891 347.831 313.856 349.634C319.821 351.437 324.913 355.3 328.184 360.504C331.456 365.707 332.683 371.897 331.639 377.921" stroke="#263238" stroke-linecap="round" stroke-linejoin="round"/>
<path d="M321.719 364.611L322.012 364.305" stroke="#263238" stroke-width="2" stroke-linecap="round" stroke-linejoin="round"/>
<path d="M317.594 368.962L319.645 366.797" stroke="#263238" stroke-width="2" stroke-linecap="round" stroke-linejoin="round"/>
<path d="M292.428 372.157L302.339 385.05L315.797 370.861" stroke="#263238" stroke-width="2" stroke-linecap="round" stroke-linejoin="round"/>
</svg>
